<?xml version="1.0" encoding="utf-8"?>
<svg version="1.1" id="Layer_1" x="0px" y="0px" viewBox="56.101 95.776 299.996 77.798" style="enable-background:new 0 0 402.9 265.94;" xmlns="http://www.w3.org/2000/svg">
  <style type="text/css">
	.st0{fill:#FFFFFF;}
	.st1{fill:none;}
	.st2{fill:#FFFFFF;}
	.st3{fill:#FFFFFF;}
	.st4{fill:#FFFFFF;}
	.st5{fill:#FFFFFF;}
	.st6{fill:#FFFFFF;}
	.st7{fill:#FFFFFF;}
	.st8{fill:#FFFFFF;}
	.st9{fill:#FFFFFF;}
	.st10{fill:#FFFFFF;}
	.st11{fill:#FFFFFF;}
	.st12{filter:url(#Adobe_OpacityMaskFilter);}
	.st13{opacity:0.73;fill:#FFFFFF;}
	.st14{opacity:0.83;mask:url(#SVGID_11_);fill:#FFFFFF;}
	.st15{filter:url(#Adobe_OpacityMaskFilter_1_);}
	.st16{opacity:0.73;fill:#FFFFFF;}
	.st17{opacity:0.04;mask:url(#SVGID_13_);fill:#FFFFFF;}
</style>
  <g>
    <path class="st0" d="M283.61,137.85c0,5.1-3.02,6.17-5.55,6.17c-2.53,0-5.55-1.07-5.55-6.17V123.2h-7.57v15.55 c0,7.54,5.02,12.25,13.13,12.31c8.09-0.06,13.12-4.77,13.12-12.31V123.2h-7.58V137.85z"/>
    <path class="st0" d="M314.22,122.8l-0.71-0.16c-0.92-0.2-2.52-0.22-2.71-0.22c-10.03,0-14.91,4.5-14.91,13.75l-0.01,14h7.52v-9.04 c0-0.42,0-0.84-0.01-1.25c-0.04-6.49,0.23-10.16,6.43-10.35c0.58-0.02,2.29,0.01,3.2,0.32l1.19,0.41V122.8z"/>
    <path class="st0" d="M215.32,122.43c-10.03,0-14.91,4.5-14.91,13.75l-0.01,14h7.52v-9.04c0-0.42,0-0.84-0.01-1.25 c-0.04-6.49,0.23-10.16,6.43-10.35c0.59-0.02,2.29,0.01,3.2,0.32l1.2,0.41v-7.46l-0.71-0.16 C217.11,122.45,215.51,122.43,215.32,122.43z"/>
    <rect x="223.5" y="122.84" class="st0" width="7.53" height="27.34"/>
    <path class="st0" d="M164.85,122.84h-7.75l-0.09,0.8c-0.01,0.09-1.06,8.71-7.25,16.87c-6.17-8.15-7.24-16.78-7.25-16.87l-0.09-0.8 h-7.74l0.07,0.97c0.05,0.64,1.33,15.84,14.43,26.68l0.57,0.47l0.57-0.47c13.12-10.84,14.4-26.04,14.44-26.68L164.85,122.84z"/>
    <path class="st0" d="M251.7,133.37l-4.49-0.73c-2.01-0.3-3.01-1.22-2.96-1.97c0.07-0.95,1.77-1.87,4.2-1.72l0.08,0.01 c2.09,0.15,3.78,0.57,5.02,1.26l0.53,0.3l5.62-4.59l-0.96-0.69c-2.29-1.64-5.35-2.54-9.65-2.84l-0.14-0.01 c-6-0.37-12.29,2.33-12.71,8.19c-0.23,3.27,1.13,7.43,8.92,8.67l4.48,0.72c1.97,0.32,3.19,1.15,3.11,2.13 c-0.11,1.57-3.28,1.97-5.27,1.86l-0.12-0.01c-2.49-0.17-4.44-0.78-5.97-1.88l-0.56-0.4l-5.82,4.78l0.84,0.7 c3.07,2.54,6.59,3.27,10.94,3.57l0.2,0.01c0.49,0.03,0.98,0.05,1.46,0.05c2.79,0,5.38-0.5,7.41-1.45c3.05-1.43,4.78-3.81,5-6.9 C261.18,137.73,257.76,134.35,251.7,133.37z"/>
    <path class="st0" d="M338.74,140.32l-0.12,0.28c-0.79,1.9-3.65,3.29-6.8,3.29c-4.77-0.2-6.17-3.39-6.65-5.29h20.88v-0.72 c0-10.11-5.27-15.96-14.47-16.06h-0.01c-9.97,0-14.43,7.22-14.43,14.38c0,8.69,5.96,14.52,14.84,14.52c7.6,0,11.16-4.33,12.45-6.46 L338.74,140.32z M331.8,127.92c3.33,0,5.7,1.95,6.21,5.11h-12.49C325.96,130.23,328.81,127.92,331.8,127.92z"/>
    <path class="st0" d="M189,140.32l-0.12,0.28c-0.79,1.9-3.65,3.29-6.8,3.29c-4.77-0.2-6.17-3.39-6.65-5.29h20.88v-0.72 c0-10.11-5.27-15.96-14.47-16.06h-0.01c-9.97,0-14.43,7.22-14.43,14.38c0,8.69,5.96,14.52,14.84,14.52c7.6,0,11.16-4.33,12.45-6.46 L189,140.32z M182.06,127.92c3.33,0,5.7,1.95,6.21,5.11h-12.49C176.22,130.23,179.07,127.92,182.06,127.92z"/>
  </g>
  <g>
    <g>
      <path class="st1" d="M85.96,163.92c-7.97,4.36-17.35-2.59-15.75-11.66c0.74-4.23,0.02-10.49-4.8-15.2 c-6.53-6.38-2.95-17.48,6.01-18.73c5.46-0.76,10.18-4.26,12.57-9.32c3.87-8.16,15.45-8.46,19.45,0c2.4,5.06,7.12,8.55,12.58,9.32 c8.96,1.25,12.53,12.51,5.93,18.82c-5.14,4.91-5.47,10.89-4.72,15.12c1.6,9.07-7.78,16.02-15.75,11.66 C96.4,161.15,90.57,161.4,85.96,163.92z"/>
      <g>
        <linearGradient id="SVGID_1_" gradientUnits="userSpaceOnUse" x1="93.7223" y1="102.3484" x2="93.7223" y2="165.2608">
          <stop offset="0.0879" style="stop-color:#FFFFFF"/>
          <stop offset="0.1724" style="stop-color:#FFFFFF;stop-opacity:0.9843"/>
          <stop offset="0.4704" style="stop-color:#FFFFFF;stop-opacity:0.9287"/>
          <stop offset="0.7173" style="stop-color:#FFFFFF;stop-opacity:0.8827"/>
          <stop offset="0.9006" style="stop-color:#FFFFFF;stop-opacity:0.8485"/>
          <stop offset="1" style="stop-color:#FFFFFF;stop-opacity:0.83"/>
        </linearGradient>
        <path class="st2" d="M80.85,165.26c-3.22,0-6.4-1.54-8.5-4.1c-2.1-2.57-2.93-5.82-2.35-9.16c0.36-2.05,1.26-9.31-4.56-15 c-3.08-3.01-4.35-7.3-3.03-11.44c1.32-4.14,4.77-7.07,8.99-7.67c5.39-0.75,10.02-4.19,12.39-9.19c1.86-3.92,5.68-6.35,9.97-6.35 c4.3,0,7.98,2.38,9.87,6.35c2.37,5,7.01,8.44,12.4,9.19c4.23,0.59,7.67,3.53,8.99,7.67c1.32,4.13,0.13,8.52-2.95,11.53 c-5.82,5.69-5,12.85-4.64,14.91c0.59,3.34-0.25,6.6-2.35,9.16c-2.1,2.56-5.28,4.1-8.5,4.1c-1.81,0-3.56-0.46-5.21-1.36 c-2.35-1.28-4.99-1.96-7.64-1.96c-2.67,0-5.32,0.68-7.67,1.96C84.41,164.8,82.66,165.26,80.85,165.26L80.85,165.26z M93.76,102.8 c-4.12,0-7.79,2.34-9.57,6.1c-2.43,5.13-7.19,8.66-12.74,9.44c-4.05,0.57-7.36,3.39-8.63,7.36c-1.26,3.97-0.22,8.23,2.74,11.13 c5.98,5.85,5.23,13.15,4.86,15.26c-0.56,3.21,0.24,6.33,2.25,8.79c2.02,2.46,5.07,3.94,8.16,3.94l0,0c1.74,0,3.42-0.44,5-1.31 c2.41-1.32,5.14-2.02,7.88-2.02c2.72,0,5.44,0.7,7.85,2.02c1.58,0.87,3.27,1.31,5,1.31c3.09,0,6.14-1.47,8.16-3.94 c2.02-2.46,2.81-5.58,2.25-8.79c-0.37-2.1-1.11-9.41,4.87-15.26c2.95-2.89,4-7.16,2.74-11.13c-1.27-3.97-4.57-6.79-8.63-7.36 c-5.54-0.77-10.3-4.3-12.74-9.44C101.42,105.08,97.89,102.8,93.76,102.8z"/>
      </g>
      <g>
        <linearGradient id="SVGID_2_" gradientUnits="userSpaceOnUse" x1="93.7376" y1="164.9193" x2="93.7376" y2="102.2443">
          <stop offset="0" style="stop-color:#FFFFFF"/>
          <stop offset="0.1411" style="stop-color:#FFFFFF"/>
          <stop offset="0.2552" style="stop-color:#FFFFFF"/>
          <stop offset="0.3313" style="stop-color:#FFFFFF"/>
          <stop offset="0.4233" style="stop-color:#FFFFFF;stop-opacity:0.92"/>
          <stop offset="0.5696" style="stop-color:#FFFFFF;stop-opacity:0.9665"/>
          <stop offset="0.6748" style="stop-color:#FFFFFF"/>
          <stop offset="0.7231" style="stop-color:#FFFFFF"/>
          <stop offset="0.7786" style="stop-color:#D4D9DF"/>
          <stop offset="0.8372" style="stop-color:#EBEDF0"/>
          <stop offset="0.8773" style="stop-color:#FFFFFF"/>
          <stop offset="1" style="stop-color:#FFFFFF"/>
        </linearGradient>
        <path class="st3" d="M80.86,164.92c-3.22,0-6.4-1.53-8.5-4.08c-2.11-2.56-3-5.79-2.46-9.13c0.41-2.53,1.3-8.79-4.62-14.76 c-3-3.04-4.17-7.46-2.85-11.58c1.32-4.12,4.76-7.05,8.99-7.64c5.39-0.75,10.02-4.17,12.4-9.15c1.86-3.91,5.68-6.33,9.97-6.33 c4.29,0,7.98,2.37,9.87,6.33c2.37,4.98,7.01,8.4,12.4,9.15c4.23,0.59,7.67,3.52,8.99,7.64c1.32,4.12,0.22,8.55-2.85,11.55 c-5.82,5.67-5.1,12.76-4.74,14.8c0.59,3.33-0.24,6.57-2.35,9.13c-2.1,2.56-5.28,4.08-8.5,4.08c-1.81,0-3.56-0.46-5.21-1.35 c-2.35-1.28-5-1.96-7.64-1.96c-2.67,0-5.32,0.67-7.67,1.96C84.43,164.46,82.67,164.92,80.86,164.92L80.86,164.92z M93.78,102.7 c-4.12,0-7.79,2.33-9.57,6.08c-2.43,5.12-7.2,8.63-12.74,9.4c-4.06,0.56-7.36,3.37-8.63,7.33c-1.26,3.96-0.22,8.2,2.74,11.08 c5.98,5.83,5.24,13.11,4.86,15.2c-0.56,3.2,0.24,6.31,2.25,8.76c2.02,2.45,5.07,3.92,8.16,3.92l0,0c1.74,0,3.42-0.44,5-1.3 c2.41-1.32,5.14-2.01,7.88-2.01c2.72,0,5.44,0.69,7.85,2.01c1.59,0.86,3.26,1.3,5,1.3c3.09,0,6.14-1.46,8.16-3.92 c2.02-2.46,2.81-5.57,2.25-8.76c-0.37-2.09-1.11-9.37,4.86-15.2c2.95-2.88,4.01-7.13,2.74-11.08c-1.26-3.96-4.57-6.76-8.63-7.33 c-5.54-0.77-10.3-4.29-12.74-9.4C101.44,104.97,97.9,102.7,93.78,102.7z"/>
      </g>
      <linearGradient id="SVGID_3_" gradientUnits="userSpaceOnUse" x1="86.7925" y1="111.3612" x2="103.1239" y2="156.2315">
        <stop offset="0" style="stop-color:#D5D8E2"/>
        <stop offset="0.0345" style="stop-color:#E3E5EC"/>
        <stop offset="0.0895" style="stop-color:#F3F4F6"/>
        <stop offset="0.1523" style="stop-color:#FCFCFD"/>
        <stop offset="0.2393" style="stop-color:#FFFFFF"/>
        <stop offset="0.4346" style="stop-color:#FBFCFC"/>
        <stop offset="0.6276" style="stop-color:#EFF1F3"/>
        <stop offset="0.819" style="stop-color:#DBE0E5"/>
        <stop offset="1" style="stop-color:#C1C9D2"/>
      </linearGradient>
      <path class="st4" d="M71.66,159.11c2.64,4.62,8.56,6.84,13.94,4.24c0.15-0.07,0.31-0.15,0.47-0.24c4.58-2.49,10.36-2.73,15.4,0.02 c0.16,0.09,0.32,0.18,0.46,0.24c5.44,2.57,11.41,0.24,13.91-4.42c1.19-2.08,1.64-4.38,1.15-7.35c-0.36-2.19-0.29-4.88,0.5-7.62 c0.71-2.49,2.06-5.02,4.35-7.24c1.89-1.84,2.85-4.12,3.19-6.41c0.71-4.69-2.16-9.98-6.53-11.47c-0.41-0.17-1.55-0.52-3.22-0.82 c-5.13-0.93-9.5-4.11-11.87-9.1c-0.38-0.79-1.08-1.78-1.57-2.43c-3.71-4.91-11.86-5.32-16.16-0.09c-0.64,0.77-1.12,1.63-1.56,2.53 c-2.43,4.98-7.08,8.36-12.46,9.19c-0.97,0.15-1.88,0.36-2.71,0.71c-4.44,1.76-7.06,6.56-6.53,11.19c0.26,2.3,1.28,4.72,3.17,6.56 c2.28,2.21,3.5,4.79,4.28,6.95c0.97,2.67,0.97,5.87,0.58,8.06C69.97,154.33,70.47,157.03,71.66,159.11z"/>
      <radialGradient id="SVGID_4_" cx="119.9113" cy="130.6947" r="30.99" gradientTransform="matrix(0.998 0 0 1.0123 -0.4825 -1.5262)" gradientUnits="userSpaceOnUse">
        <stop offset="0" style="stop-color:#FFFFFF"/>
        <stop offset="1" style="stop-color:#FFFFFF;stop-opacity:0"/>
      </radialGradient>
      <path class="st5" d="M71.66,159.11c2.64,4.62,8.56,6.84,13.94,4.24c0.15-0.07,0.31-0.15,0.47-0.24c4.58-2.49,10.36-2.73,15.4,0.02 c0.16,0.09,0.32,0.18,0.46,0.24c5.44,2.57,11.41,0.24,13.91-4.42c1.19-2.08,1.64-4.38,1.15-7.35c-0.36-2.19-0.29-4.88,0.5-7.62 c0.71-2.49,2.06-5.02,4.35-7.24c1.89-1.84,2.85-4.12,3.19-6.41c0.71-4.69-2.16-9.98-6.53-11.47c-0.41-0.17-1.55-0.52-3.22-0.82 c-5.13-0.93-9.5-4.11-11.87-9.1c-0.38-0.79-1.08-1.78-1.57-2.43c-3.71-4.91-11.86-5.32-16.16-0.09c-0.64,0.77-1.12,1.63-1.56,2.53 c-2.43,4.98-7.08,8.36-12.46,9.19c-0.97,0.15-1.88,0.36-2.71,0.71c-4.44,1.76-7.06,6.56-6.53,11.19c0.26,2.3,1.28,4.72,3.17,6.56 c2.28,2.21,3.5,4.79,4.28,6.95c0.97,2.67,0.97,5.87,0.58,8.06C69.97,154.33,70.47,157.03,71.66,159.11z"/>
      <linearGradient id="SVGID_5_" gradientUnits="userSpaceOnUse" x1="89.1281" y1="103.2841" x2="111.8586" y2="153.7328">
        <stop offset="0" style="stop-color:#384D56"/>
        <stop offset="0.071" style="stop-color:#54666F"/>
        <stop offset="0.1758" style="stop-color:#76858D"/>
        <stop offset="0.2823" style="stop-color:#919EA5"/>
        <stop offset="0.39" style="stop-color:#A5AFB7"/>
        <stop offset="0.4995" style="stop-color:#B0B9C1"/>
        <stop offset="0.6135" style="stop-color:#B4BDC4"/>
        <stop offset="0.6276" style="stop-color:#B5BEC5"/>
        <stop offset="0.8382" style="stop-color:#C6CCD4"/>
        <stop offset="1" style="stop-color:#CBD1D9"/>
      </linearGradient>
      <path class="st6" d="M116.82,149.96c-16.13-25.84-46.42-31.59-46.42-31.59c0.98-0.21,1.98-0.36,2.98-0.64 c3.15-0.87,8.26-3.23,10.88-9.06c3.33-7.42,14.75-8.55,18.91-0.16c2.39,4.81,5.73,8.5,13.11,9.71 c8.07,1.32,12.33,11.76,5.32,18.77C121.59,137,116.26,141.98,116.82,149.96z"/>
      <radialGradient id="SVGID_6_" cx="105.2505" cy="135.4437" r="15.2156" gradientTransform="matrix(0.998 0 0 1.0123 -0.4825 -1.5262)" gradientUnits="userSpaceOnUse">
        <stop offset="0" style="stop-color:#FFFFFF;stop-opacity:0.16"/>
        <stop offset="0.0223" style="stop-color:#FFFFFF;stop-opacity:0.1564"/>
        <stop offset="1" style="stop-color:#FFFFFF;stop-opacity:0"/>
      </radialGradient>
      <path class="st7" d="M116.82,149.96c-16.13-25.84-46.42-31.59-46.42-31.59c0.98-0.21,1.98-0.36,2.98-0.64 c3.15-0.87,8.26-3.23,10.88-9.06c3.33-7.42,14.75-8.55,18.91-0.16c2.39,4.81,5.73,8.5,13.11,9.71 c8.07,1.32,12.33,11.76,5.32,18.77C121.59,137,116.26,141.98,116.82,149.96z"/>
      <radialGradient id="SVGID_7_" cx="75.5427" cy="118.3921" r="15.2158" gradientTransform="matrix(0.998 0 0 1.0123 -0.4825 -1.5262)" gradientUnits="userSpaceOnUse">
        <stop offset="0" style="stop-color:#2C3B47;stop-opacity:0.2"/>
        <stop offset="0.4341" style="stop-color:#34434C;stop-opacity:0.1132"/>
        <stop offset="1" style="stop-color:#FFFFFF;stop-opacity:0"/>
      </radialGradient>
      <path class="st8" d="M116.82,149.96c-16.13-25.84-46.42-31.59-46.42-31.59c0.98-0.21,1.98-0.36,2.98-0.64 c3.15-0.87,8.26-3.23,10.88-9.06c3.33-7.42,14.75-8.55,18.91-0.16c2.39,4.81,5.73,8.5,13.11,9.71 c8.07,1.32,12.33,11.76,5.32,18.77C121.59,137,116.26,141.98,116.82,149.96z"/>
      <radialGradient id="SVGID_8_" cx="117.4747" cy="108.019" r="20.226" gradientTransform="matrix(0.998 0 0 1.0123 -0.4825 -1.5262)" gradientUnits="userSpaceOnUse">
        <stop offset="0" style="stop-color:#2C3B47;stop-opacity:0.3"/>
        <stop offset="0.3215" style="stop-color:#31404A;stop-opacity:0.2035"/>
        <stop offset="1" style="stop-color:#FFFFFF;stop-opacity:0"/>
      </radialGradient>
      <path class="st9" d="M116.82,149.96c-16.13-25.84-46.42-31.59-46.42-31.59c0.98-0.21,1.98-0.36,2.98-0.64 c3.15-0.87,8.26-3.23,10.88-9.06c3.33-7.42,14.75-8.55,18.91-0.16c2.39,4.81,5.73,8.5,13.11,9.71 c8.07,1.32,12.33,11.76,5.32,18.77C121.59,137,116.26,141.98,116.82,149.96z"/>
      <linearGradient id="SVGID_9_" gradientUnits="userSpaceOnUse" x1="82.5059" y1="124.9441" x2="108.2076" y2="147.2862" gradientTransform="matrix(1 0 0 1 -1.7344 0)">
        <stop offset="0" style="stop-color:#FFFFFF"/>
        <stop offset="0.6319" style="stop-color:#FFFFFF"/>
        <stop offset="0.6743" style="stop-color:#F9FAFA"/>
        <stop offset="0.7285" style="stop-color:#EAECED"/>
        <stop offset="0.789" style="stop-color:#CFD4D7"/>
        <stop offset="0.8541" style="stop-color:#ABB3B9"/>
        <stop offset="0.9229" style="stop-color:#7C8892"/>
        <stop offset="0.9938" style="stop-color:#445563"/>
        <stop offset="1" style="stop-color:#3E505F"/>
      </linearGradient>
      <path class="st10" d="M93.61,118.95c-9.7,0-17.52,8.32-16.89,18.29c0.54,8.54,7.4,15.49,15.82,16.02 c9.83,0.62,18.01-7.31,18.01-17.13C110.55,126.66,102.95,118.95,93.61,118.95z M94.65,152.94c-9.68,0.61-17.74-7.2-17.74-16.87 c0-9.33,7.48-16.92,16.68-16.92c9.55,0,17.26,8.2,16.64,18.02C109.7,145.58,102.94,152.42,94.65,152.94z"/>
      <linearGradient id="SVGID_10_" gradientUnits="userSpaceOnUse" x1="77.7764" y1="132.0142" x2="113.0544" y2="140.1587" gradientTransform="matrix(1 0 0 1 -1.7344 0)">
        <stop offset="0" style="stop-color:#596C77"/>
        <stop offset="0.8132" style="stop-color:#FFFFFF"/>
      </linearGradient>
      <path class="st11" d="M91.63,117.87c-8.3,0.93-14.98,7.68-15.92,16.1c-1.23,11.05,7.31,20.45,17.97,20.45 c9.97,0,18.09-8.23,18.09-18.33C111.77,125.3,102.52,116.65,91.63,117.87z M93.64,154.08c-10.21,0-18.43-8.75-17.77-19.24 c0.57-8.98,7.78-16.28,16.63-16.84c10.33-0.65,18.95,7.69,18.95,18.03C111.46,145.99,103.46,154.08,93.64,154.08z"/>
      <defs>
        <filter id="Adobe_OpacityMaskFilter" filterUnits="userSpaceOnUse" x="76.28" y="118.59" width="34.61" height="35.09">
          <feColorMatrix type="matrix" values="1 0 0 0 0  0 1 0 0 0  0 0 1 0 0  0 0 0 1 0"/>
        </filter>
      </defs>
      <mask maskUnits="userSpaceOnUse" x="76.28" y="118.59" width="34.61" height="35.09" id="SVGID_11_">
        <g class="st12">
          <radialGradient id="SVGID_12_" cx="94.3609" cy="135.8806" r="19.8173" gradientTransform="matrix(0.998 0 0 1.0123 -0.4825 -1.5262)" gradientUnits="userSpaceOnUse">
            <stop offset="0" style="stop-color:#FFFFFF"/>
            <stop offset="0.2675" style="stop-color:#A3A3A3"/>
            <stop offset="0.5366" style="stop-color:#4C4C4C"/>
            <stop offset="0.7268" style="stop-color:#151515"/>
            <stop offset="0.8187" style="stop-color:#000000"/>
          </radialGradient>
          <path class="st13" d="M73.91,136.02c0-11.08,8.85-20.06,19.78-20.06c10.92,0,19.78,8.98,19.78,20.06 c0,11.08-8.86,20.06-19.78,20.06C82.76,156.08,73.91,147.1,73.91,136.02z"/>
        </g>
      </mask>
      <path class="st14" d="M76.28,136.14c0-10.05,8.33-18.14,18.38-17.52c8.62,0.53,15.64,7.63,16.19,16.37 c0.64,10.2-7.34,18.69-17.27,18.69C84.02,153.68,76.28,145.82,76.28,136.14z"/>
      <defs>
        <filter id="Adobe_OpacityMaskFilter_1_" filterUnits="userSpaceOnUse" x="76.25" y="119.33" width="33.17" height="33.64">
          <feColorMatrix type="matrix" values="1 0 0 0 0  0 1 0 0 0  0 0 1 0 0  0 0 0 1 0"/>
        </filter>
      </defs>
      <mask maskUnits="userSpaceOnUse" x="76.25" y="119.33" width="33.17" height="33.64" id="SVGID_13_">
        <g class="st15">
          <radialGradient id="SVGID_14_" cx="93.6039" cy="135.8999" r="18.9969" gradientTransform="matrix(0.998 0 0 1.0123 -0.4825 -1.5262)" gradientUnits="userSpaceOnUse">
            <stop offset="0" style="stop-color:#FFFFFF"/>
            <stop offset="0.2675" style="stop-color:#A3A3A3"/>
            <stop offset="0.5366" style="stop-color:#4C4C4C"/>
            <stop offset="0.7268" style="stop-color:#151515"/>
            <stop offset="0.8187" style="stop-color:#000000"/>
          </radialGradient>
          <path class="st16" d="M73.97,136.04c0-10.62,8.49-19.23,18.96-19.23c10.47,0,18.96,8.61,18.96,19.23 c0,10.62-8.49,19.22-18.96,19.22C82.46,155.27,73.97,146.66,73.97,136.04z"/>
        </g>
      </mask>
      <path class="st17" d="M76.28,135.02c0.54-8.37,7.27-15.17,15.53-15.67c9.63-0.58,17.61,7.16,17.61,16.79 c0,9.28-7.43,16.81-16.59,16.81C83.3,152.96,75.65,144.82,76.28,135.02z"/>
    </g>
  </g>
</svg>