<?xml version="1.0" encoding="UTF-8" standalone="no"?>
<!DOCTYPE svg PUBLIC "-//W3C//DTD SVG 1.1//EN" "http://www.w3.org/Graphics/SVG/1.1/DTD/svg11.dtd">
<svg width="100%" height="100%" viewBox="0 0 448 189" version="1.1" xmlns="http://www.w3.org/2000/svg" xmlns:xlink="http://www.w3.org/1999/xlink" xml:space="preserve" xmlns:serif="http://www.serif.com/" style="fill-rule:evenodd;clip-rule:evenodd;stroke-linejoin:round;stroke-miterlimit:2;">
    <g transform="matrix(1,0,0,1,-10830.8,-14188.8)">
        <g transform="matrix(1,0,0,1,7020.67,11951.6)">
            <g transform="matrix(0.159264,0,0,0.159264,3783.71,2211.46)">
                <g transform="matrix(1,0,0,1,-695.06,-273.059)">
                    <path d="M861.044,434.5L861.044,1615.54L1333.46,1615.54L1333.46,1379.35L1097.24,1379.35L1097.24,670.691L1805.9,670.691L1805.9,906.911L1333.46,906.911L1333.46,1615.54L1569.65,1615.54L1569.65,1143.1L2042.09,1143.1L2042.09,434.5L861.044,434.5Z"/>
                </g>
                <g transform="matrix(1,0,0,1,-695.06,-273.059)">
                    <rect x="1805.9" y="1379.35" width="236.191" height="236.191"/>
                </g>
            </g>
        </g>
        <g transform="matrix(1,0,0,1,7020.67,11951.6)">
            <g transform="matrix(0.310956,0,0,0.310956,3950.81,561.798)">
                <text x="304.655px" y="5558.47px" style="font-family:'SpaceMono-Bold', 'Space Mono', monospace;font-weight:700;font-size:243.79px;fill:rgb(36,40,36);">L<tspan x="441.665px 578.675px 715.685px 852.694px " y="5558.47px 5558.47px 5558.47px 5558.47px ">UMEN</tspan></text>
                <text x="304.655px" y="5775.6px" style="font-family:'SpaceMono-Bold', 'Space Mono', monospace;font-weight:700;font-size:243.79px;fill:rgb(36,40,36);">A<tspan x="441.665px 578.675px " y="5775.6px 5775.6px ">ND</tspan></text>
                <g transform="matrix(243.79,0,0,243.79,1001.89,5992.72)">
                </g>
                <text x="304.655px" y="5992.72px" style="font-family:'SpaceMono-Bold', 'Space Mono', monospace;font-weight:700;font-size:243.79px;fill:rgb(36,40,36);">P<tspan x="441.665px 578.675px 715.685px 852.694px " y="5992.72px 5992.72px 5992.72px 5992.72px ">IXEL</tspan></text>
            </g>
        </g>
    </g>
</svg>
